<?xml version="1.0" encoding="utf-8"?>
<!-- Generator: Adobe Illustrator 19.1.0, SVG Export Plug-In . SVG Version: 6.00 Build 0)  -->
<svg version="1.1" id="Layer_1" xmlns="http://www.w3.org/2000/svg" xmlns:xlink="http://www.w3.org/1999/xlink" x="0px" y="0px"
	 viewBox="0 0 20 20" style="enable-background:new 0 0 20 20;" xml:space="preserve">
<style type="text/css">
	.st0{fill:#F9F9F9;}
</style>
<path class="st0" d="M18.7,4.6H1.3C0.6,4.6,0,4.1,0,3.4V1.3C0,0.6,0.6,0,1.3,0h17.5C19.4,0,20,0.6,20,1.3v2.1
	C20,4.1,19.4,4.6,18.7,4.6z"/>
<path class="st0" d="M18.7,12.3H1.3c-0.7,0-1.3-0.6-1.3-1.3V8.9c0-0.7,0.6-1.3,1.3-1.3h17.5c0.7,0,1.3,0.6,1.3,1.3v2.1
	C20,11.7,19.4,12.3,18.7,12.3z"/>
<path class="st0" d="M18.8,20H1.2C0.6,20,0,19.4,0,18.8v-2.1c0-0.7,0.6-1.2,1.2-1.2h17.5c0.7,0,1.2,0.6,1.2,1.2v2.1
	C20,19.4,19.4,20,18.8,20z"/>
</svg>
