<?xml version="1.0" encoding="utf-8"?>
<!-- Generator: Adobe Illustrator 19.1.0, SVG Export Plug-In . SVG Version: 6.00 Build 0)  -->
<svg version="1.1" id="Layer_1" xmlns="http://www.w3.org/2000/svg" xmlns:xlink="http://www.w3.org/1999/xlink" x="0px" y="0px"
	 viewBox="0 0 20 20" style="enable-background:new 0 0 20 20;" xml:space="preserve">
<style type="text/css">
	.st0{fill:#F9F9F9;}
</style>
<path class="st0" d="M18.7,12.1c0,0-6.6-0.1-8.7-0.1c-2.2,0-8.7,0.1-8.7,0.1C0.6,12.1,0,11.6,0,11c0,0,0-0.7,0-1c0-0.2,0-0.9,0-0.9
	c0-0.6,0.6-1.2,1.3-1.2L10,8.1l8.8-0.1c0.6,0,1.2,0.5,1.2,1.2c0,0,0,0.7,0,0.9c0,0.2,0,1,0,1C20,11.6,19.5,12.1,18.7,12.1z"/>
<path class="st0" d="M18.7,4.1c0,0-6.6-0.1-8.7-0.1C7.8,4,1.3,4.1,1.3,4.1C0.6,4.1,0,3.7,0,3.1c0,0,0-0.7,0-1c0-0.2,0-0.9,0-0.9
	C0,0.5,0.6,0,1.3,0L10,0.1L18.8,0C19.4,0,20,0.5,20,1.2c0,0,0,0.7,0,0.9c0,0.2,0,1,0,1C20,3.7,19.5,4.1,18.7,4.1z"/>
<path class="st0" d="M18.7,20c0,0-6.6-0.1-8.7-0.1c-2.2,0-8.7,0.1-8.7,0.1C0.6,20,0,19.6,0,18.9c0,0,0-0.7,0-1C0,17.7,0,17,0,17
	c0-0.6,0.6-1.2,1.3-1.2L10,16l8.8-0.1c0.6,0,1.2,0.5,1.2,1.2c0,0,0,0.7,0,0.9c0,0.2,0,1,0,1C20,19.6,19.5,20,18.7,20z"/>
</svg>
