<?xml version="1.0" encoding="utf-8"?>
<!-- Generator: Adobe Illustrator 19.1.0, SVG Export Plug-In . SVG Version: 6.00 Build 0)  -->
<svg version="1.1" id="Layer_1" xmlns="http://www.w3.org/2000/svg" xmlns:xlink="http://www.w3.org/1999/xlink" x="0px" y="0px"
	 viewBox="-5 5.4 7.8 10.6" style="enable-background:new -5 5.4 7.8 10.6;" xml:space="preserve">
<style type="text/css">
	.st0{enable-background:new    ;}
	.st1{fill:#F9F9F9;}
</style>
<g class="st0">
	<g id="XMLID_1_">
		<g>
			<rect x="1.1" y="14.5" class="st1" width="1.5" height="1.5"/>
			<path class="st1" d="M0.4,8.5v4.1c0,1.2-0.2,2-0.7,2.6C-0.7,15.8-1.5,16-2.6,16h-2.3V5.5h2.3c1.1,0,1.9,0.2,2.3,0.7
				C0.2,6.7,0.4,7.4,0.4,8.5z M-1.1,13.2c0-0.2,0-0.4,0-0.7c0-0.1,0-0.2,0-0.2V8.9c0-0.2,0-0.3,0-0.5c0-0.1,0-0.2,0-0.4
				c0-0.2,0-0.3,0-0.4c0-0.1,0-0.2-0.1-0.3c0-0.1-0.1-0.2-0.1-0.3C-1.4,7.1-1.5,7-1.5,6.9c-0.1-0.1-0.2-0.1-0.3-0.2
				c-0.1,0-0.2-0.1-0.4-0.1c-0.1,0-0.3,0-0.4,0h-0.8v8.2h0.8c0.2,0,0.5,0,0.6-0.1c0.2-0.1,0.3-0.1,0.4-0.2s0.2-0.2,0.3-0.3
				s0.1-0.3,0.1-0.5C-1.1,13.5-1.1,13.4-1.1,13.2z"/>
		</g>
		<g>
		</g>
	</g>
</g>
</svg>
